<svg width="20" height="20" viewBox="0 0 20 20" fill="none" xmlns="http://www.w3.org/2000/svg">
<path d="M19.5556 17.7733C19.5556 18.6364 18.2039 20 17.36 20H2.19333C1.34947 20 0 18.6364 0 17.7733V2.22667C0 1.36363 1.34947 0 2.19333 0H17.36C18.2039 0 19.5556 1.36363 19.5556 2.22667" fill="#FFE812"/>
<path d="M9.77776 2.8125C5.39017 2.8125 1.83331 5.68085 1.83331 9.21875C1.83331 11.506 3.32021 13.5132 5.55697 14.6466C5.43553 15.0757 4.77518 17.4078 4.74892 17.5909C4.74892 17.5909 4.73311 17.7286 4.82024 17.7811C4.90737 17.8336 5.00972 17.793 5.00972 17.793C5.25977 17.7573 7.90832 15.8545 8.36665 15.5243C8.82469 15.5905 9.29615 15.625 9.77776 15.625C14.1653 15.625 17.7222 12.757 17.7222 9.21875C17.7222 5.68085 14.1653 2.8125 9.77776 2.8125Z" fill="black"/>
<path d="M5.38541 11.4551C5.13267 11.4551 4.92708 11.2543 4.92708 11.0074V8.22266H4.21183C3.96386 8.22266 3.76215 8.01666 3.76215 7.76367C3.76215 7.51068 3.96386 7.30469 4.21183 7.30469H6.55899C6.80696 7.30469 7.00867 7.51068 7.00867 7.76367C7.00867 8.01666 6.80696 8.22266 6.55899 8.22266H5.84374V11.0074C5.84374 11.2543 5.63815 11.4551 5.38541 11.4551Z" fill="#FFE812"/>
<path d="M8.55495 9.80408L8.09721 8.47382L7.63948 9.80408H8.55495ZM9.40448 11.449C9.21321 11.449 9.06699 11.3696 9.02283 11.2418L8.79605 10.6342H7.39837L7.1713 11.2421C7.12743 11.3696 6.98122 11.449 6.79025 11.449C6.68909 11.449 6.58823 11.4267 6.49872 11.3843C6.3725 11.3248 6.25105 11.1606 6.3901 10.7187L7.4864 7.76733C7.56368 7.54303 7.79822 7.31171 8.09691 7.30469C8.3962 7.31171 8.63074 7.54303 8.70803 7.76794L9.80403 10.7178C9.94368 11.1609 9.82193 11.3251 9.69571 11.3843C9.60589 11.4267 9.50533 11.449 9.40448 11.449Z" fill="#FFE812"/>
<path d="M10.5417 11.3867C10.2994 11.3867 10.1024 11.1938 10.1024 10.957V7.77344C10.1024 7.51495 10.3122 7.30469 10.5703 7.30469C10.8284 7.30469 11.0382 7.51495 11.0382 7.77344V10.5273H12.0122C12.2545 10.5273 12.4514 10.7202 12.4514 10.957C12.4514 11.1938 12.2545 11.3867 12.0122 11.3867" fill="#FFE812"/>
<path d="M13.0882 11.449C12.8351 11.449 12.6298 11.2387 12.6298 10.9802V7.77344C12.6298 7.51495 12.8351 7.30469 13.0882 7.30469C13.3409 7.30469 13.5465 7.51495 13.5465 7.77344V8.78082L14.8251 7.47314C14.8911 7.40601 14.9812 7.36877 15.0793 7.36877C15.1936 7.36877 15.3085 7.41913 15.3947 7.50732C15.475 7.58942 15.5231 7.6947 15.5296 7.80426C15.5362 7.91504 15.5001 8.01636 15.4285 8.0899L14.3838 9.15802L15.512 10.6863C15.5857 10.7864 15.617 10.9097 15.6 11.0336C15.583 11.1578 15.5201 11.2677 15.4222 11.3428C15.3419 11.4047 15.2467 11.4377 15.1465 11.4377C15.0012 11.4377 14.8678 11.3696 14.7803 11.2512L13.7055 9.79462L13.5465 9.95728V10.9799C13.5465 11.2387 13.3409 11.449 13.0882 11.449Z" fill="#FFE812"/>
</svg>
